<mxfile host="app.diagrams.net" modified="2021-01-14T15:15:37.797Z" agent="5.0 (X11; Linux x86_64) AppleWebKit/537.36 (KHTML, like Gecko) Chrome/87.0.4280.88 Safari/537.36" etag="PridVMCctDNJRSeOk3Jv" version="14.1.9" type="github">
  <diagram name="Page-1" id="f1b7ffb7-ca1e-a977-7cf5-a751b3c06c05">
    <mxGraphModel dx="1595" dy="745" grid="1" gridSize="10" guides="1" tooltips="1" connect="1" arrows="1" fold="1" page="1" pageScale="1" pageWidth="826" pageHeight="1169" background="#ffffff" math="0" shadow="0">
      <root>
        <mxCell id="0" />
        <mxCell id="1" parent="0" />
        <mxCell id="7ZWlHS4yxJDdfUxgQqd9-62" value="Job Interview" style="text;spacingTop=-5;fontSize=18;fontStyle=0" vertex="1" parent="1">
          <mxGeometry x="70" y="30" width="230" height="20" as="geometry" />
        </mxCell>
        <mxCell id="7ZWlHS4yxJDdfUxgQqd9-63" value="" style="line;strokeWidth=1" vertex="1" parent="1">
          <mxGeometry x="20" y="60" width="780" height="10" as="geometry" />
        </mxCell>
        <mxCell id="7ZWlHS4yxJDdfUxgQqd9-64" value="" style="line;strokeWidth=1" vertex="1" parent="1">
          <mxGeometry x="20" y="90" width="780" height="10" as="geometry" />
        </mxCell>
        <mxCell id="7ZWlHS4yxJDdfUxgQqd9-65" value="Home" style="text;spacingTop=-5;" vertex="1" parent="1">
          <mxGeometry x="20" y="70.00000000000009" width="30" height="20" as="geometry" />
        </mxCell>
        <mxCell id="7ZWlHS4yxJDdfUxgQqd9-66" value="Questionnaries" style="text;spacingTop=-5;" vertex="1" parent="1">
          <mxGeometry x="59.999999999999936" y="70.00000000000016" width="30" height="20" as="geometry" />
        </mxCell>
        <mxCell id="7ZWlHS4yxJDdfUxgQqd9-67" value="RSS" style="text;spacingTop=-5;" vertex="1" parent="1">
          <mxGeometry x="740" y="70.00000000000013" width="30" height="20" as="geometry" />
        </mxCell>
        <mxCell id="7ZWlHS4yxJDdfUxgQqd9-68" value="" style="verticalLabelPosition=bottom;verticalAlign=top;strokeWidth=1;shape=mxgraph.mockup.graphics.iconGrid;strokeColor=#CCCCCC;gridSize=1,1;" vertex="1" parent="1">
          <mxGeometry x="20" y="15" width="40" height="40" as="geometry" />
        </mxCell>
        <mxCell id="7ZWlHS4yxJDdfUxgQqd9-69" value="Blog &#xa;Logo" style="text;spacingTop=-5;align=center" vertex="1" parent="1">
          <mxGeometry x="20" y="20" width="40" height="40" as="geometry" />
        </mxCell>
        <mxCell id="7ZWlHS4yxJDdfUxgQqd9-70" value="Questions" style="text;spacingTop=-5;" vertex="1" parent="1">
          <mxGeometry x="149.99999999999997" y="70.00000000000003" width="30" height="20" as="geometry" />
        </mxCell>
        <mxCell id="7ZWlHS4yxJDdfUxgQqd9-71" value="Exams" style="text;spacingTop=-5;" vertex="1" parent="1">
          <mxGeometry x="219.99999999999997" y="70.00000000000003" width="30" height="20" as="geometry" />
        </mxCell>
        <mxCell id="7ZWlHS4yxJDdfUxgQqd9-92" value="Junior Software Developer Test" style="strokeWidth=1;shadow=0;dashed=0;align=center;html=1;shape=mxgraph.mockup.text.textBox;fontColor=#666666;align=left;fontSize=17;spacingLeft=4;spacingTop=-3;strokeColor=#666666;mainText=" vertex="1" parent="1">
          <mxGeometry x="160" y="130" width="260" height="30" as="geometry" />
        </mxCell>
        <mxCell id="7ZWlHS4yxJDdfUxgQqd9-93" value="&lt;b&gt;Title:&lt;/b&gt;" style="text;html=1;strokeColor=none;fillColor=none;align=center;verticalAlign=middle;whiteSpace=wrap;rounded=0;" vertex="1" parent="1">
          <mxGeometry x="90" y="130" width="80" height="30" as="geometry" />
        </mxCell>
        <mxCell id="7ZWlHS4yxJDdfUxgQqd9-96" value="&lt;table cellpadding=&quot;4&quot; cellspacing=&quot;0&quot; border=&quot;1&quot; style=&quot;font-size: 1em ; width: 100% ; height: 100%&quot;&gt;&lt;tbody&gt;&lt;tr&gt;&lt;th&gt;Title&lt;/th&gt;&lt;th&gt;Category&lt;/th&gt;&lt;/tr&gt;&lt;tr&gt;&lt;td&gt;Whats is Class?&lt;/td&gt;&lt;td&gt;OOP&lt;/td&gt;&lt;/tr&gt;&lt;tr&gt;&lt;td&gt;How is String defined in Java?&lt;/td&gt;&lt;td&gt;java&lt;/td&gt;&lt;/tr&gt;&lt;/tbody&gt;&lt;/table&gt; " style="verticalAlign=top;align=left;overflow=fill;fontSize=12;fontFamily=Helvetica;html=1" vertex="1" parent="1">
          <mxGeometry x="80" y="240" width="240" height="110" as="geometry" />
        </mxCell>
        <mxCell id="7ZWlHS4yxJDdfUxgQqd9-100" value="&lt;table cellpadding=&quot;4&quot; cellspacing=&quot;0&quot; border=&quot;1&quot; style=&quot;font-size: 1em ; width: 100% ; height: 100%&quot;&gt;&lt;tbody&gt;&lt;tr&gt;&lt;th&gt;Level&lt;/th&gt;&lt;th&gt;&lt;br&gt;&lt;/th&gt;&lt;/tr&gt;&lt;tr&gt;&lt;td&gt;EASY&lt;/td&gt;&lt;td style=&quot;text-align: center&quot;&gt;&lt;u&gt;Add&lt;/u&gt;&lt;/td&gt;&lt;/tr&gt;&lt;tr&gt;&lt;td&gt;EASY&lt;/td&gt;&lt;td style=&quot;text-align: center&quot;&gt;Add&lt;/td&gt;&lt;/tr&gt;&lt;/tbody&gt;&lt;/table&gt; " style="verticalAlign=top;align=left;overflow=fill;fontSize=12;fontFamily=Helvetica;html=1" vertex="1" parent="1">
          <mxGeometry x="320" y="240" width="240" height="110" as="geometry" />
        </mxCell>
      </root>
    </mxGraphModel>
  </diagram>
</mxfile>
